<svg width="52" height="48" viewBox="0 0 52 48" fill="none" xmlns="http://www.w3.org/2000/svg">
<path d="M0 0H6.08512V6.12174H0V0Z" fill="url(#paint0_linear_64_2)"/>
<path fill-rule="evenodd" clip-rule="evenodd" d="M15.2128 4.5913H9.12767V10.1076C8.58579 10.4684 8.07864 10.8647 7.60639 11.2967V9.18261H1.52128V15.3043H4.66764C3.58425 17.5526 3.04256 20.2063 3.04256 23.2652C3.04256 26.5014 3.65259 29.2812 4.87285 31.6043C6.08289 33.9276 7.81234 35.708 10.061 36.9456C12.3099 38.1935 14.9924 38.8174 18.1083 38.8174H25.8617V48H36.8435C39.9898 48 42.6924 47.3761 44.9513 46.1282C47.2202 44.8804 48.9597 43.0898 50.1697 40.7565C51.39 38.4232 52 35.6333 52 32.3869C52 29.1507 51.39 26.371 50.1697 24.0478C48.9597 21.7246 47.2302 19.9442 44.9815 18.7065C42.7327 17.4587 40.0502 16.8348 36.9343 16.8348H29.1808V7.65217H18.1991C17.1547 7.65217 16.1593 7.72092 15.2128 7.85838V4.5913ZM22.6311 13.2978H18.4713C16.5352 13.2978 14.9066 13.6428 13.5855 14.3326C12.2544 15.0326 11.256 16.113 10.5905 17.5739C9.91487 19.045 9.57708 20.942 9.57708 23.2652C9.57708 25.5681 9.91487 27.45 10.5905 28.9109C11.256 30.3718 12.2493 31.4471 13.5704 32.137C14.8915 32.8268 16.5201 33.1717 18.4563 33.1717H22.6311V13.2978ZM32.4115 42.3543H36.5712C38.5074 42.3543 40.136 42.0094 41.4571 41.3195C42.7882 40.6196 43.7865 39.5391 44.4521 38.0782C45.1277 36.6072 45.4655 34.7101 45.4655 32.3869C45.4655 30.084 45.1277 28.2022 44.4521 26.7413C43.7865 25.2804 42.7932 24.2051 41.4721 23.5152C40.151 22.8254 38.5224 22.4804 36.5863 22.4804H32.4115V42.3543Z" fill="url(#paint1_linear_64_2)"/>
<defs>
<linearGradient id="paint0_linear_64_2" x1="6.54194e-07" y1="24" x2="176" y2="24" gradientUnits="userSpaceOnUse">
<stop stop-color="#8F46D9"/>
<stop offset="1" stop-color="#5753FF"/>
</linearGradient>
<linearGradient id="paint1_linear_64_2" x1="6.54194e-07" y1="24" x2="176" y2="24" gradientUnits="userSpaceOnUse">
<stop stop-color="#8F46D9"/>
<stop offset="1" stop-color="#5753FF"/>
</linearGradient>
</defs>
</svg>
